<svg xmlns="http://www.w3.org/2000/svg" viewBox="0 0 1440 360" role="img" aria-labelledby="title desc">
  <title id="title">Apple Health AI Bridge lockup</title>
  <desc id="desc">A folded package bridge mark with the Apple Health AI Bridge wordmark and product-value tagline.</desc>
  <rect width="1440" height="360" rx="40" fill="#FFFFFF"/>
  <rect x="1" y="1" width="1438" height="358" rx="39" fill="none" stroke="#D8DEE4"/>

  <g transform="translate(84 80) scale(2.0833333333)">
    <rect width="96" height="96" rx="22" fill="#111827"/>
    <path d="M48 14L76 31V65L48 82L20 65V31L48 14Z" fill="rgba(255,255,255,.048)" stroke="rgba(255,255,255,.15)" stroke-width="2"/>
      <path d="M48 14L76 31L48 48L20 31L48 14Z" fill="rgba(255,255,255,.055)"/>
      <path d="M20 31L48 48V82L20 65V31Z" fill="rgba(255,255,255,.032)"/>
      <path d="M76 31L48 48V82L76 65V31Z" fill="rgba(255,255,255,.022)"/>
      <path d="M32.5 40L48 48.5L63.5 40" fill="none" stroke="#F7F8FA" stroke-width="4.6" stroke-linecap="round" stroke-linejoin="round" opacity=".9"/>
      <path d="M31.5 58C41.5 50.5 54.5 50.5 64.5 58" fill="none" stroke="#3ECF8E" stroke-width="5.6" stroke-linecap="round"/>
      <path d="M39 64H57" fill="none" stroke="#7AB7FF" stroke-width="3.8" stroke-linecap="round" opacity=".78"/>
  </g>
  <text x="336" y="150" fill="#111827" font-family="Geist, Inter, ui-sans-serif, system-ui, -apple-system, BlinkMacSystemFont, Segoe UI, sans-serif" font-size="66" font-weight="700" letter-spacing="-3.2">Apple Health AI Bridge</text>
  <text x="339" y="207" fill="#64748B" font-family="Geist, Inter, ui-sans-serif, system-ui, -apple-system, BlinkMacSystemFont, Segoe UI, sans-serif" font-size="27" font-weight="440" letter-spacing="-.55">Apple Health for your AI tools.</text>
  <text x="339" y="252" fill="#8490A3" font-family="Geist, Inter, ui-sans-serif, system-ui, -apple-system, BlinkMacSystemFont, Segoe UI, sans-serif" font-size="20" font-weight="480" letter-spacing="-.25">Open-source · local-first · read-only by default</text>
</svg>
